<?xml version="1.0" standalone="no"?>
<!DOCTYPE svg PUBLIC "-//W3C//DTD SVG 20010904//EN"
 "http://www.w3.org/TR/2001/REC-SVG-20010904/DTD/svg10.dtd">
<svg version="1.0" xmlns="http://www.w3.org/2000/svg"
 width="500.000000pt" height="500.000000pt" viewBox="0 0 500.000000 500.000000"
 preserveAspectRatio="xMidYMid meet">

<g transform="translate(0.000000,500.000000) scale(0.100000,-0.100000)"
fill="#000000" stroke="none">
<path d="M0 2500 l0 -2500 2500 0 2500 0 0 2500 0 2500 -2500 0 -2500 0 0
-2500z m4400 1047 c8 -18 30 -40 49 -49 l34 -17 -24 -9 c-29 -12 -55 -39 -67
-72 -10 -25 -10 -25 -27 12 -12 23 -32 44 -53 54 l-34 16 34 16 c18 10 40 32
48 49 8 18 17 33 20 33 3 0 12 -15 20 -33z m-3535 -144 c32 -71 62 -134 68
-140 7 -10 2 -13 -20 -13 -26 0 -30 4 -39 43 l-9 42 -67 3 -66 3 -12 -35 c-6
-20 -9 -40 -5 -46 4 -6 -7 -10 -26 -10 -24 0 -29 3 -21 13 9 10 59 119 108
235 8 17 18 32 22 32 5 0 35 -57 67 -127z m243 111 c73 -51 34 -134 -63 -134
-36 0 -31 17 8 25 42 9 57 22 57 49 0 32 -19 46 -63 46 l-38 0 3 -125 3 -125
-29 0 c-24 0 -26 2 -16 15 8 10 11 52 8 140 l-3 125 55 0 c34 0 64 -6 78 -16z
m226 -5 c19 -15 26 -30 26 -53 0 -42 -26 -66 -79 -73 -50 -7 -56 12 -8 22 42
9 57 22 57 49 0 32 -19 46 -63 46 l-38 0 3 -125 3 -125 -25 0 -25 0 0 140 0
140 61 0 c47 0 68 -5 88 -21z m206 8 c45 -23 32 -117 -17 -117 -20 0 -16 -9
21 -51 19 -21 42 -52 51 -68 15 -30 15 -31 -7 -30 -17 0 -29 13 -48 52 -15 30
-39 60 -58 72 -37 24 -40 35 -9 35 30 0 67 27 67 49 0 27 -21 41 -63 41 l-39
0 4 -125 c3 -119 2 -125 -17 -125 -19 0 -20 7 -20 140 l0 140 55 0 c30 0 66
-6 80 -13z m290 -2 c0 -12 -15 -15 -75 -15 l-75 0 0 -41 0 -41 70 4 c64 3 70
1 70 -17 0 -18 -6 -20 -70 -17 l-70 4 0 -57 0 -57 79 4 c73 3 78 2 70 -14 -8
-15 -24 -18 -97 -18 l-87 0 0 140 0 140 93 0 c75 0 92 -3 92 -15z m184 -86
l97 -101 -3 101 -3 101 25 0 25 0 -3 -140 c-2 -77 -6 -140 -9 -140 -3 0 -54
51 -114 113 l-109 112 3 -113 2 -112 -28 0 c-24 0 -26 2 -17 19 5 11 10 65 10
121 0 56 -5 110 -10 121 -9 16 -7 19 13 19 18 0 51 -28 121 -101z m330 87 c51
-21 76 -60 76 -120 0 -98 -55 -146 -166 -146 -48 0 -55 2 -44 15 8 10 11 52 8
140 l-3 125 48 0 c26 0 62 -6 81 -14z m264 -3 c31 -28 35 -56 11 -86 -11 -15
-27 -27 -35 -27 -21 0 -17 -14 12 -41 14 -13 39 -43 55 -66 l28 -43 -28 0
c-24 0 -30 5 -35 30 -3 17 -26 50 -51 76 -26 25 -45 47 -43 48 2 1 16 6 32 11
68 23 59 78 -13 83 l-43 3 4 -125 c3 -120 2 -126 -17 -126 -19 0 -20 7 -20
140 l0 140 61 0 c44 0 67 -5 82 -17z m282 13 c0 -2 2 -10 5 -18 4 -10 -10 -12
-70 -10 l-75 4 0 -42 0 -42 70 4 c65 3 70 2 70 -17 0 -19 -5 -20 -70 -17 l-70
4 0 -57 0 -57 73 4 c66 3 73 1 69 -14 -4 -16 -17 -18 -96 -18 l-91 0 0 140 0
140 93 0 c50 0 92 -2 92 -4z m307 -93 c25 -54 54 -117 64 -140 l18 -43 -30 0
c-18 0 -28 4 -24 10 3 6 1 26 -6 45 -13 35 -13 35 -76 35 -62 0 -64 -1 -77
-32 -8 -18 -12 -38 -9 -45 3 -9 -4 -13 -21 -13 l-25 0 35 78 c19 42 47 105 62
139 15 35 31 63 35 63 5 0 29 -44 54 -97z m156 82 c-6 -18 77 -210 87 -198 19
23 81 185 76 198 -4 11 2 15 24 15 29 0 29 0 14 -27 -8 -16 -37 -77 -64 -138
-27 -60 -53 -111 -58 -113 -7 -2 -99 187 -129 266 -4 8 5 12 26 12 23 0 29 -4
24 -15z m431 0 c4 -13 -7 -15 -69 -15 l-75 0 0 -41 0 -41 70 4 c64 3 70 1 70
-17 0 -18 -6 -20 -70 -17 l-70 4 0 -57 0 -57 75 4 c41 2 75 2 75 1 0 -1 -3 -8
-6 -17 -5 -13 -23 -16 -93 -16 l-86 0 0 140 0 140 86 0 c68 0 88 -3 93 -15z
m260 5 c2 -3 8 -19 12 -35 l7 -30 -26 23 c-30 29 -102 32 -140 8 -45 -30 -60
-93 -32 -146 42 -82 130 -93 203 -27 18 17 22 18 22 4 0 -36 -98 -84 -152 -73
-91 18 -145 125 -103 205 8 16 29 41 47 56 29 24 38 27 95 23 34 -2 64 -6 67
-8z m-789 -489 c-3 -14 -7 -51 -9 -81 -1 -30 -6 -65 -10 -78 l-8 -23 34 21
c18 11 37 20 42 20 15 0 -44 -58 -63 -63 -16 -4 -17 3 -15 52 2 31 3 89 3 130
-1 69 1 74 16 61 11 -9 15 -22 10 -39z m35 39 c0 -5 -6 -10 -14 -10 -8 0 -18
5 -21 10 -3 6 3 10 14 10 12 0 21 -4 21 -10z m49 -22 c12 -31 7 -33 -30 -18
-29 13 -30 14 -13 27 25 18 33 16 43 -9z m-1448 -79 l42 -71 33 54 c19 29 36
61 40 71 4 13 16 17 47 16 36 0 39 -2 19 -10 -16 -6 -22 -15 -18 -26 2 -10 10
-61 17 -113 6 -52 16 -103 21 -112 7 -15 4 -18 -22 -18 -19 0 -29 4 -25 11 8
12 -15 219 -24 219 -3 0 -23 -32 -44 -70 -21 -39 -42 -70 -46 -70 -4 0 -25 31
-47 70 -21 38 -42 70 -45 70 -9 0 -32 -207 -24 -219 4 -7 -3 -11 -18 -11 l-23
0 12 73 c7 39 15 100 19 134 6 54 5 62 -12 66 -10 3 -1 5 19 6 36 1 39 -2 79
-70z m439 67 c0 -2 2 -10 5 -18 4 -10 -10 -12 -70 -10 l-75 4 0 -42 0 -42 70
4 c65 3 70 2 70 -17 0 -19 -5 -20 -70 -17 l-70 4 0 -57 0 -57 73 4 c66 3 73 1
69 -14 -4 -16 -17 -18 -96 -18 l-91 0 0 140 0 140 93 0 c50 0 92 -2 92 -4z
m90 -8 c0 -6 18 -36 41 -65 l41 -54 44 57 c24 31 44 60 44 65 0 5 11 9 25 9
25 0 24 -2 -20 -56 -74 -91 -77 -97 -73 -164 3 -58 2 -60 -22 -60 -24 0 -25 2
-22 61 l4 61 -61 79 -60 79 29 0 c17 0 30 -5 30 -12z m435 -119 c33 -73 62
-136 63 -140 2 -5 -10 -9 -27 -9 -23 0 -29 4 -25 15 4 9 1 29 -6 45 -12 29
-15 30 -75 30 -60 0 -63 -1 -75 -30 -7 -16 -10 -36 -6 -45 4 -11 -2 -15 -24
-15 l-29 0 43 93 c24 50 53 113 64 140 12 26 25 47 29 47 4 0 35 -59 68 -131z
m445 79 c0 -5 -7 -20 -16 -34 -9 -13 -14 -27 -12 -30 3 -3 15 11 26 31 24 40
52 47 52 13 0 -21 0 -21 -15 -2 -8 10 -15 15 -15 10 0 -5 7 -17 16 -27 15 -16
13 -19 -25 -38 -22 -12 -42 -21 -43 -21 -6 0 -7 44 -1 94 5 45 7 48 19 31 8
-10 14 -23 14 -27z m25 22 c3 -5 2 -10 -4 -10 -5 0 -13 5 -16 10 -3 6 -2 10 4
10 5 0 13 -4 16 -10z m60 -21 c-3 -4 1 -11 9 -16 8 -4 17 -20 21 -35 7 -27 7
-28 -24 -17 -25 9 -31 17 -31 40 0 16 6 29 13 30 10 0 10 2 0 6 -7 2 -13 9
-13 15 0 6 6 6 15 -2 8 -7 12 -16 10 -21z m71 -86 c-7 -7 -26 7 -26 19 0 6 6
6 15 -2 9 -7 13 -15 11 -17z m-73 -33 c-4 -4 -27 -12 -50 -17 -42 -11 -42 -11
-27 12 8 12 11 25 7 30 -5 4 -3 5 3 2 7 -4 18 0 25 9 12 14 15 14 31 -7 11
-12 15 -25 11 -29z m32 31 c10 -17 -12 -21 -25 -6 -10 12 -10 15 3 15 9 0 18
-4 22 -9z m56 -27 c10 -13 10 -19 0 -36 -7 -11 -8 -17 -2 -13 7 4 11 -4 11
-19 0 -35 -13 -39 -78 -24 l-57 13 48 3 c27 2 55 -2 63 -9 18 -15 18 -10 -1
34 -25 59 -15 89 16 51z m-41 -10 c0 -8 -4 -12 -10 -9 -14 9 -12 -8 3 -24 10
-11 5 -13 -28 -7 -22 3 -51 6 -65 7 -17 0 -9 5 24 14 27 8 53 18 59 24 15 15
17 14 17 -5z m-102 -45 c33 0 35 -1 14 -10 -29 -11 -110 0 -90 12 7 5 19 7 26
4 8 -3 30 -5 50 -6z m-939 -404 l-25 -26 -22 24 -22 24 21 27 22 28 26 -26 26
-26 -26 -25z m140 46 l20 -28 -24 -23 -25 -23 -24 22 -25 23 21 29 c27 36 32
36 57 0z m129 -48 l-22 -24 -25 25 -25 25 24 26 25 26 22 -28 22 -27 -21 -23z
m-738 12 c-7 -8 -16 -15 -20 -15 -15 0 -20 31 -9 52 11 20 11 20 26 -1 12 -17
12 -25 3 -36z m105 -5 c-18 -20 -18 -20 -32 0 -11 16 -11 23 -1 40 13 20 13
20 32 0 19 -19 19 -20 1 -40z m118 36 c15 -22 15 -25 -2 -40 -23 -21 -28 -20
-41 4 -8 14 -8 26 0 40 14 26 24 25 43 -4z m122 4 c18 -20 18 -21 -3 -43 l-22
-21 -22 21 c-21 22 -21 23 -3 43 10 11 21 20 25 20 4 0 15 -9 25 -20z m520 0
c18 -20 18 -21 -3 -43 l-22 -21 -22 21 c-21 22 -21 23 -3 43 10 11 21 20 25
20 4 0 15 -9 25 -20z m113 0 c9 -15 10 -26 2 -40 -13 -24 -18 -25 -41 -4 -17
15 -17 18 -2 40 19 29 25 30 41 4z m109 -40 l-14 -20 -18 20 c-17 19 -17 21 0
40 l18 20 14 -20 c12 -17 12 -23 0 -40z m-1278 4 c-14 -14 -17 -14 -29 0 -10
13 -10 19 0 32 12 14 15 14 29 0 14 -15 14 -17 0 -32z m90 0 c-14 -14 -17 -14
-29 0 -10 13 -10 19 0 32 12 14 15 14 29 0 14 -15 14 -17 0 -32z m1295 31 c6
-17 -2 -45 -14 -45 -4 0 -13 7 -20 15 -10 12 -10 18 0 30 7 8 16 15 20 15 4 0
10 -7 14 -15z m95 -31 c-14 -14 -17 -14 -29 0 -10 13 -10 19 0 32 12 14 15 14
29 0 14 -15 14 -17 0 -32z m90 0 c-14 -14 -17 -14 -29 0 -10 13 -10 19 0 32
12 14 15 14 29 0 14 -15 14 -17 0 -32z m-1734 6 c-5 -8 -11 -8 -17 -2 -6 6 -7
16 -3 22 5 8 11 8 17 2 6 -6 7 -16 3 -22z m81 19 c10 -17 -13 -36 -27 -22 -12
12 -4 33 11 33 5 0 12 -5 16 -11z m1740 0 c10 -17 -13 -36 -27 -22 -12 12 -4
33 11 33 5 0 12 -5 16 -11z m69 -19 c-5 -8 -11 -8 -17 -2 -6 6 -7 16 -3 22 5
8 11 8 17 2 6 -6 7 -16 3 -22z"/>
<path d="M772 3425 c-12 -25 -22 -50 -22 -55 0 -6 20 -10 45 -10 25 0 45 4 45
9 0 11 -38 101 -43 101 -2 0 -13 -20 -25 -45z"/>
<path d="M2257 3504 c-4 -4 -7 -56 -7 -116 l0 -108 41 0 c31 0 47 6 70 29 25
25 29 37 29 81 0 44 -4 56 -29 81 -16 16 -38 29 -49 29 -11 0 -27 2 -34 5 -8
3 -17 2 -21 -1z"/>
<path d="M3113 3420 c-11 -27 -19 -51 -15 -54 8 -9 94 -7 90 2 -1 4 -11 28
-22 55 -10 26 -21 47 -25 47 -3 0 -16 -23 -28 -50z"/>
<path d="M2761 2940 c-30 -65 -28 -70 24 -70 52 0 54 6 20 70 l-23 45 -21 -45z"/>
</g>
</svg>
